<svg xmlns="http://www.w3.org/2000/svg" xmlns:xlink="http://www.w3.org/1999/xlink" width="443" height="443">
  <defs>
    <path id="a" d="M179.814.5v81.547H131.16s-1.218.133-3.367.21l-1.772.055-2.037.354-2.326.331c-.83.067-1.628.431-2.514.619l-2.747.663c-.897.376-1.838.74-2.813 1.072l-1.506.508c-.487.199-.952.486-1.44.718-.974.487-1.982.95-3.023 1.415-3.92 2.287-7.875 5.149-11.419 8.508-3.366 3.536-6.224 7.47-8.527 11.381a69.561 69.561 0 0 1-1.407 3.028c-.232.486-.52.95-.72 1.436l-.51 1.492a51.302 51.302 0 0 1-1.073 2.807l-.665 2.74c-.188.884-.554 1.68-.62 2.52l-.332 2.32-.355 2.033c-.022.64-.044 1.226-.044 1.768-.089 2.132-.222 3.348-.222 3.348v.033s.133 1.216.21 3.36l.056 1.767.355 2.033.332 2.32c.066.83.432 1.625.62 2.509.22.914.441 1.827.665 2.74.381.93.74 1.87 1.074 2.818l.51 1.492c.199.486.487.95.72 1.436.5.996.972 2.006 1.417 3.028a62.188 62.188 0 0 0 8.528 11.381 62.23 62.23 0 0 0 11.407 8.508c1.02.441 2.028.91 3.023 1.404.488.232.953.519 1.451.729l1.495.497c.947.332 1.885.69 2.813 1.072l2.747.663c.886.188 1.683.564 2.525.619l2.326.331 2.038.365c.59.012 1.18.023 1.771.033 2.138.1 3.356.221 3.356.221h49.472V82.865h81.734v97.867h49.483l8.816.409 4.629.287 5.449.774 6.169.972c2.17.332 4.396 1.017 6.744 1.57 2.36.607 4.796 1.226 7.31 1.933l7.586 2.73 3.943 1.48c1.318.541 2.602 1.193 3.92 1.8a374.89 374.89 0 0 1 7.997 3.89 142.4 142.4 0 0 1 30.168 22.498 142.059 142.059 0 0 1 22.537 30.088 391.34 391.34 0 0 1 3.899 7.978c.609 1.315 1.251 2.608 1.805 3.911l1.484 3.934 2.736 7.58c.72 2.498 1.34 4.94 1.938 7.271.565 2.354 1.24 4.575 1.572 6.74l.975 6.166.775 5.426.288 4.618.41 8.796v.077l-.41 8.774-.288 4.64-.775 5.426-.975 6.155c-.332 2.176-1.018 4.397-1.572 6.74-.61 2.343-1.23 4.774-1.938 7.282l-2.736 7.58-1.484 3.934c-.543 1.303-1.196 2.585-1.805 3.9a349.25 349.25 0 0 1-3.899 7.978 142.048 142.048 0 0 1-22.537 30.1 142.322 142.322 0 0 1-30.168 22.486 375.943 375.943 0 0 1-7.997 3.9c-1.318.608-2.602 1.249-3.92 1.79l-3.943 1.481-7.586 2.73c-2.514.717-4.95 1.336-7.299 1.933-2.359.563-4.585 1.238-6.755 1.569-2.182.343-4.231.663-6.17.983-1.948.266-3.765.53-5.448.774l-4.63.287-8.815.398h-.067l-8.804-.398-4.652-.298-5.426-.774-6.18-.972c-2.171-.331-4.408-1.017-6.756-1.57a295.078 295.078 0 0 1-7.287-1.933l-7.598-2.729-3.943-1.48c-1.317-.542-2.591-1.183-3.92-1.79a403.88 403.88 0 0 1-7.996-3.901 142.51 142.51 0 0 1-30.169-22.486c-9.015-9.15-16.645-19.57-22.537-30.1a402.469 402.469 0 0 1-3.899-7.978c-.609-1.315-1.251-2.597-1.805-3.9l-1.484-3.934-2.735-7.58c-.71-2.508-1.34-4.94-1.939-7.282-.553-2.343-1.24-4.564-1.572-6.74l-.975-6.166-.775-5.414-.299-4.63-.399-8.785v-49.403H131.14l-8.805-.398-4.64-.287-5.438-.774c-1.938-.32-3.998-.64-6.169-.983-2.181-.32-4.407-1.006-6.755-1.558-2.348-.608-4.785-1.227-7.299-1.934l-7.597-2.73-3.943-1.48c-1.307-.552-2.591-1.193-3.91-1.8a376.469 376.469 0 0 1-8.007-3.901 142.4 142.4 0 0 1-30.157-22.487 142.125 142.125 0 0 1-22.537-30.088 402.181 402.181 0 0 1-3.91-7.978c-.609-1.315-1.251-2.597-1.794-3.911l-1.484-3.934-2.736-7.58c-.708-2.498-1.34-4.94-1.949-7.271-.554-2.354-1.23-4.575-1.561-6.74-.344-2.166-.665-4.232-.986-6.166l-.775-5.414-.288-4.641L0 131.417v-.077l.399-8.785.299-4.619.775-5.436.975-6.155c.332-2.176 1.007-4.397 1.561-6.74.61-2.343 1.24-4.774 1.95-7.282l2.735-7.58 1.484-3.934c.543-1.303 1.185-2.585 1.794-3.9a374.363 374.363 0 0 1 3.91-7.978 142.202 142.202 0 0 1 22.537-30.1 142.4 142.4 0 0 1 30.157-22.486 375.415 375.415 0 0 1 8.008-3.89c1.318-.618 2.602-1.259 3.91-1.8l3.942-1.481 7.597-2.73c2.514-.717 4.95-1.336 7.299-1.933 2.348-.563 4.574-1.238 6.755-1.569l6.18-.983 5.427-.774 4.64-.287L131.14.5h48.675zm131.98 261.757h-49.438v49.37s.133 1.216.221 3.348c.016.59.031 1.179.044 1.768.12.681.239 1.363.355 2.044l.332 2.32c.078.83.432 1.625.631 2.509l.665 2.74c.382.926.74 1.862 1.074 2.807l.499 1.503c.21.486.498.939.72 1.436.498.994.97 2 1.417 3.017a62.177 62.177 0 0 0 8.539 11.381 62.32 62.32 0 0 0 11.407 8.508c1.02.446 2.028.918 3.024 1.415.487.232.952.519 1.44.718l1.494.508c.95.333 1.892.69 2.825 1.072l2.746.663c.875.177 1.684.552 2.514.619l2.326.331 2.038.354c.59.016 1.181.03 1.772.044 2.148.088 3.367.221 3.367.221h.022s1.229-.133 3.367-.221l1.772-.044 2.048-.354 2.326-.331c.83-.067 1.628-.431 2.514-.619l2.736-.663c.932-.38 1.874-.738 2.824-1.072l1.495-.508c.487-.199.952-.497 1.44-.718.999-.498 2.01-.97 3.034-1.415 3.92-2.287 7.863-5.149 11.407-8.508 3.367-3.536 6.225-7.47 8.528-11.381.448-1.02.92-2.03 1.418-3.028.232-.486.51-.95.72-1.436l.498-1.492c.335-.944.693-1.88 1.074-2.807.244-.95.454-1.856.665-2.74.188-.884.565-1.68.631-2.52l.321-2.32c.144-.718.255-1.403.366-2.033.017-.59.032-1.178.044-1.768.089-2.132.222-3.348.222-3.348v-.033s-.133-1.216-.222-3.36l-.044-1.767-.355-2.033-.332-2.32c-.066-.83-.432-1.625-.62-2.509l-.665-2.74a54.98 54.98 0 0 1-1.085-2.807l-.498-1.503c-.21-.486-.499-.95-.72-1.436a59.24 59.24 0 0 1-1.418-3.028c-2.303-3.9-5.16-7.845-8.528-11.381-3.544-3.36-7.486-6.21-11.407-8.508a69.87 69.87 0 0 1-3.034-1.404c-.488-.232-.953-.519-1.44-.718l-1.495-.508a68.745 68.745 0 0 1-2.824-1.072l-2.736-.663c-.886-.188-1.683-.564-2.525-.619l-2.326-.331-2.038-.354-1.772-.055c-2.148-.077-3.366-.21-3.366-.21h-.034v-.011z"/>
  </defs>
  <use fill="#FFF" fill-rule="evenodd" xlink:href="#a"/>
</svg>
