<?xml version="1.0" encoding="UTF-8"?>
<svg width="16px" height="16px" viewBox="0 0 16 16" version="1.1" xmlns="http://www.w3.org/2000/svg" xmlns:xlink="http://www.w3.org/1999/xlink">
    <!-- Generator: Sketch 56.3 (81716) - https://sketch.com -->
    <title>Fill 4 Copy</title>
    <desc>Created with Sketch.</desc>
    <g id="Page-1" stroke="none" stroke-width="1" fill="none" fill-rule="evenodd" opacity="0.800000012">
        <g id="CaseStudy" transform="translate(-1658.000000, -8044.000000)" fill="#FFFFFF">
            <g id="Group-18" transform="translate(0.000000, 7641.000000)">
                <g id="Group-79" transform="translate(1503.000000, 402.000000)">
                    <path d="M162.987639,11.240316 C161.734778,11.2384571 160.720778,10.2206808 160.722637,8.96774718 C160.724496,7.71667248 161.739425,6.70261415 162.991356,6.70261415 C164.244217,6.70633206 165.258217,7.72224933 165.259146,8.97518299 C165.257287,10.2281166 164.2405,11.242175 162.987639,11.240316 M162.991356,4.73956082 C165.329782,4.7404903 167.224874,6.63662135 167.226733,8.97518299 C167.226733,11.3146741 165.330712,13.2108052 162.991356,13.2108052 C160.652001,13.2108052 158.755051,11.3146741 158.755051,8.97518299 C158.755051,6.63569188 160.652001,4.73956082 162.991356,4.73956082 Z M167.09652,3.65811549 C167.765704,3.65811549 168.307557,4.20092948 168.307557,4.86922273 C168.308487,5.53844545 167.766634,6.08218892 167.09745,6.08311839 C166.428266,6.08404787 165.884554,5.54216336 165.883625,4.87201115 C165.882695,4.20278843 166.424548,3.65904496 167.093732,3.65811549 L167.09652,3.65811549 Z M169.227592,12.2856977 C169.227592,13.9085628 167.907813,15.2284187 166.285042,15.2284187 L159.714028,15.2284187 C158.092187,15.2284187 156.772408,13.9085628 156.772408,12.2856977 L156.772408,5.71430231 C156.772408,4.09236668 158.092187,2.77251075 159.714028,2.77251075 L166.285042,2.77251075 C167.907813,2.77251075 169.227592,4.09236668 169.227592,5.71430231 L169.227592,12.2856977 Z M166.285042,1 L159.714028,1 C157.115365,1 155,3.11548739 155,5.71430231 L155,12.2856977 C155,14.8854421 157.115365,17 159.714028,17 L166.285042,17 C168.884635,17 171,14.8854421 171,12.2856977 L171,5.71430231 C171,3.11548739 168.884635,1 166.285042,1 L166.285042,1 Z" id="Fill-4-Copy"></path>
                </g>
            </g>
        </g>
    </g>
</svg>