<?xml version="1.0" encoding="UTF-8"?>
<svg width="17px" height="16px" viewBox="0 0 17 16" version="1.1" xmlns="http://www.w3.org/2000/svg" xmlns:xlink="http://www.w3.org/1999/xlink">
    <!-- Generator: Sketch 56.3 (81716) - https://sketch.com -->
    <title>Linked in</title>
    <desc>Created with Sketch.</desc>
    <g id="Page-1" stroke="none" stroke-width="1" fill="none" fill-rule="evenodd" opacity="0.800000012">
        <g id="CaseStudy" transform="translate(-1617.000000, -8044.000000)" fill="#FFFFFF">
            <g id="Group-18" transform="translate(0.000000, 7641.000000)">
                <g id="Group-79" transform="translate(1503.000000, 402.000000)">
                    <path d="M117.859243,17 L114.21527,17 L114.21527,6.2046745 L117.859243,6.2046745 L117.859243,17 Z M116.037501,4.72998468 L116.013094,4.72998468 C114.790788,4.72998468 114,3.90083216 114,2.86499234 C114,1.80608045 114.815196,1 116.06142,1 C117.308132,1 118.075001,1.80608045 118.099408,2.86499234 C118.099408,3.90083216 117.307644,4.72998468 116.037501,4.72998468 Z M130.999512,17 L127.355539,17 L127.355539,11.2233304 C127.355539,9.77267402 126.828347,8.78249767 125.509878,8.78249767 C124.503331,8.78249767 123.903894,9.4501457 123.639809,10.0952023 C123.543646,10.3254424 123.520215,10.64749 123.520215,10.970499 L123.520215,16.9995193 L119.876242,16.9995193 C119.876242,16.9995193 119.92408,7.21600024 119.876242,6.20419383 L123.520215,6.20419383 L123.520215,7.73223781 C124.004451,6.99681557 124.870413,5.94943972 126.804916,5.94943972 C129.202177,5.94943972 131,7.49286508 131,10.8089945 L131,17 L130.999512,17 Z" id="Linked-in"></path>
                </g>
            </g>
        </g>
    </g>
</svg>