<?xml version="1.0" encoding="UTF-8"?>
<svg width="16px" height="16px" viewBox="0 0 16 16" version="1.1" xmlns="http://www.w3.org/2000/svg" xmlns:xlink="http://www.w3.org/1999/xlink">
    <!-- Generator: Sketch 56.3 (81716) - https://sketch.com -->
    <title>Shape</title>
    <desc>Created with Sketch.</desc>
    <g id="Page-1" stroke="none" stroke-width="1" fill="none" fill-rule="evenodd" opacity="0.800000012">
        <g id="CaseStudy" transform="translate(-1577.000000, -8044.000000)" fill="#FFFFFF" fill-rule="nonzero">
            <g id="Group-18" transform="translate(0.000000, 7641.000000)">
                <g id="Group-79" transform="translate(1503.000000, 402.000000)">
                    <path d="M74,9 C74,7.549328 74.357344,6.210672 75.072,4.984 C75.786672,3.757328 76.757344,2.786672 77.984,2.072 C79.210672,1.357328 80.549344,1 82,1 C83.450672,1 84.789344,1.357328 86.016,2.072 C87.242672,2.786672 88.213344,3.757328 88.928,4.984 C89.642672,6.210672 90,7.549328 90,9 C90,10.450672 89.642672,11.789328 88.928,13.016 C88.213344,14.242672 87.242672,15.213328 86.016,15.928 C84.789344,16.642672 83.450672,17 82,17 C80.549344,17 79.210672,16.642672 77.984,15.928 C76.757344,15.213328 75.786672,14.242672 75.072,13.016 C74.357344,11.789328 74,10.450672 74,9 Z M75.328,9 C75.328,10.664 75.888,12.130672 77.008,13.4 C77.52,12.397328 78.330672,11.442672 79.44,10.536 C80.549344,9.629328 81.632,9.058672 82.688,8.824 C82.528,8.450672 82.373344,8.114672 82.224,7.816 C80.389344,8.402672 78.405344,8.696 76.272,8.696 C75.856,8.696 75.546672,8.690672 75.344,8.68 C75.344,8.722672 75.341344,8.776 75.336,8.84 C75.330672,8.904 75.328,8.957328 75.328,9 Z M75.536,7.352 C75.770672,7.373328 76.117344,7.384 76.576,7.384 C78.357344,7.384 80.048,7.144 81.648,6.664 C80.837344,5.224 79.946672,4.024 78.976,3.064 C78.133344,3.490672 77.410672,4.082672 76.808,4.84 C76.205344,5.597328 75.781344,6.434672 75.536,7.352 Z M77.92,14.264 C79.125344,15.202672 80.485344,15.672 82,15.672 C82.789344,15.672 83.573344,15.522672 84.352,15.224 C84.138672,13.4 83.722672,11.634672 83.104,9.928 C82.122672,10.141328 81.133344,10.68 80.136,11.544 C79.138672,12.408 78.4,13.314672 77.92,14.264 Z M80.368,2.552 C81.306672,3.522672 82.176,4.733328 82.976,6.184 C84.426672,5.576 85.52,4.802672 86.256,3.864 C85.018672,2.84 83.6,2.328 82,2.328 C81.456,2.328 80.912,2.402672 80.368,2.552 Z M83.552,7.32 C83.712,7.661328 83.893344,8.093328 84.096,8.616 C84.885344,8.541328 85.744,8.504 86.672,8.504 C87.333344,8.504 87.989344,8.52 88.64,8.552 C88.554672,7.101328 88.032,5.810672 87.072,4.68 C86.378672,5.714672 85.205344,6.594672 83.552,7.32 Z M84.496,9.736 C85.04,11.314672 85.408,12.936 85.6,14.6 C86.442672,14.056 87.130672,13.357328 87.664,12.504 C88.197344,11.650672 88.517344,10.728 88.624,9.736 C87.845344,9.682672 87.136,9.656 86.496,9.656 C85.909344,9.656 85.242672,9.682672 84.496,9.736 Z" id="Shape"></path>
                </g>
            </g>
        </g>
    </g>
</svg>