<?xml version="1.0" encoding="UTF-8"?>
<svg width="18px" height="15px" viewBox="0 0 18 15" version="1.1" xmlns="http://www.w3.org/2000/svg" xmlns:xlink="http://www.w3.org/1999/xlink">
    <!-- Generator: Sketch 56.3 (81716) - https://sketch.com -->
    <title>Shape</title>
    <desc>Created with Sketch.</desc>
    <g id="Page-1" stroke="none" stroke-width="1" fill="none" fill-rule="evenodd" opacity="0.800000012">
        <g id="CaseStudy" transform="translate(-1535.000000, -8045.000000)" fill="#FFFFFF">
            <g id="Group-18" transform="translate(0.000000, 7641.000000)">
                <g id="Group-79" transform="translate(1503.000000, 402.000000)">
                    <path d="M49.4675318,2.2708502 C48.783324,2.71285593 47.9915189,3.02696213 47.1564911,3.21693056 C46.4621547,2.44019519 45.480015,1.99844187 44.4509273,2.00000413 C42.4093394,2.00000413 40.7539979,3.70219642 40.7539979,5.78056381 C40.7539979,6.08150389 40.7852654,6.37303958 40.8183722,6.66457528 C37.7743831,6.49529649 35.0522659,4.99059612 33.226792,2.68652367 C32.9095772,3.26610488 32.7288386,3.91332199 32.698922,4.57680352 C32.7357074,5.92162947 33.3794513,7.07836788 34.3542635,7.75548305 C33.774894,7.74607867 33.2047208,7.57679988 32.7081183,7.28526418 L32.7081183,7.3604992 C32.7081183,9.17554403 33.9772135,10.7084575 35.6785368,11.0752282 C35.3658611,11.1410589 35.0347928,11.1880808 34.6945282,11.2068895 C34.4646196,11.1880808 34.2347111,11.169272 34.0323916,11.1410589 C34.4830123,12.6269505 35.8440709,13.7178583 37.4718234,13.7742845 C36.1415046,14.804044 34.5235939,15.370928 32.8552598,15.3918374 C32.5793695,15.3636243 32.2850866,15.3542199 32,15.3260068 C33.6909108,16.4225898 35.6525693,17.0032925 37.6548306,16.999986 C44.4472488,16.999986 48.1662494,11.2351027 48.1515353,6.26582968 C48.1653298,6.06833776 48.1607316,5.90846334 48.1515353,5.72225667 C48.8844029,5.19717034 49.5119085,4.53312178 50,3.76614619 C49.3333364,4.0859204 48.619594,4.29087382 47.8876003,4.37272853 C48.6545617,3.90261338 49.2195347,3.15354919 49.4693711,2.27555239" id="Shape"></path>
                </g>
            </g>
        </g>
    </g>
</svg>