<?xml version="1.0" encoding="UTF-8"?>
<svg width="802px" height="665px" viewBox="0 0 802 665" version="1.1" xmlns="http://www.w3.org/2000/svg" xmlns:xlink="http://www.w3.org/1999/xlink">
    <!-- Generator: Sketch 56.3 (81716) - https://sketch.com -->
    <title>Group 35</title>
    <desc>Created with Sketch.</desc>
    <defs>
        <path d="M141.867825,0 L141.85585,0 L194.4261,0 L194.4261,88.3732907 L141.819925,88.3732907 C141.819925,88.3732907 140.502675,88.5169871 138.179525,88.60081 L136.263525,88.6606835 L134.060125,89.0438739 L131.545375,89.4031149 C130.64725,89.4749631 129.78505,89.8701282 128.82705,90.0736982 L125.85725,90.7921802 C124.887275,91.19932 123.8694,91.5944851 122.8156,91.9537262 L121.187,92.5045624 C120.6601,92.720107 120.15715,93.0314492 119.63025,93.2829179 C118.57645,93.8098048 117.486725,94.3127422 116.361075,94.8156796 C112.121925,97.2944426 107.84685,100.39589 104.01485,104.036199 C100.37445,107.868103 97.2849,112.131097 94.7941,116.370141 C94.303125,117.495763 93.800175,118.58546 93.273275,119.651209 C93.0218,120.178096 92.71045,120.681033 92.4949,121.20792 L91.94405,122.824504 C91.572825,123.878278 91.189625,124.896128 90.782475,125.866078 L90.063975,128.835804 C89.8604,129.79378 89.465225,130.655959 89.393375,131.566036 L89.034125,134.080723 L88.650925,136.284068 C88.626975,136.978601 88.603025,137.61326 88.603025,138.20002 C88.507225,140.511137 88.363525,141.828354 88.363525,141.828354 L88.363525,141.864278 C88.363525,141.864278 88.507225,143.181495 88.59105,145.504587 L88.650925,147.420539 L89.034125,149.623884 L89.393375,152.138572 C89.465225,153.036674 89.8604,153.898853 90.063975,154.856829 C90.301192,155.847288 90.5406926,156.837199 90.782475,157.826554 C91.1950408,158.83457 91.5823534,159.852737 91.94405,160.880103 L92.4949,162.496688 C92.71045,163.023574 93.0218,163.526512 93.273275,164.053399 C93.8138219,165.133008 94.3249438,166.227101 94.806075,167.334467 C97.3982008,171.784637 100.491983,175.922969 104.026825,179.668408 C107.771882,183.203727 111.910386,186.297483 116.361075,188.888928 C117.464084,189.366798 118.554194,189.873906 119.63025,190.409715 C120.15715,190.661183 120.6601,190.972526 121.198975,191.200045 L122.8156,191.738907 C123.839691,192.098812 124.853939,192.486134 125.85725,192.900452 L128.82705,193.618935 C129.78505,193.822504 130.64725,194.229644 131.55735,194.289518 L134.0721,194.648759 L136.2755,195.043924 C136.914143,195.057144 137.552811,195.069119 138.1915,195.079848 C140.502675,195.18762 141.819925,195.319342 141.819925,195.319342 L195.31225,195.319342 L195.31225,89.2594185 L283.68775,89.2594185 L283.68775,195.319342 L337.19205,195.319342 L346.72415,195.762406 L351.7297,196.073748 L357.6214,196.911977 L364.291475,197.965751 C366.638575,198.324992 369.04555,199.067423 371.58425,199.666158 C374.134925,200.324767 376.769425,200.99535 379.48775,201.761731 L387.690625,204.719482 L391.953725,206.324092 C393.37875,206.910852 394.76785,207.61736 396.192875,208.275968 C399.03095,209.617135 401.9289,211.030149 404.838825,212.491063 C416.743508,219.138042 427.712698,227.336542 437.458725,236.871553 C446.989547,246.613827 455.184232,257.578727 461.82785,269.478663 C463.265523,272.344564 464.67068,275.22666 466.04305,278.124397 C466.701675,279.549386 467.396225,280.950426 467.994975,282.363441 L469.599625,286.626434 L472.55745,294.841079 C473.335825,297.547361 474.006425,300.19377 474.653075,302.720432 C475.2638,305.271043 475.994275,307.677958 476.353525,310.024999 L477.407325,316.706882 L478.245575,322.58646 L478.556925,327.591885 L479,337.123747 L479,337.20757 L478.556925,346.715482 L478.245575,351.744856 L477.407325,357.624434 L476.353525,364.294343 C475.994275,366.653359 475.251825,369.060273 474.653075,371.59891 C473.99445,374.137547 473.32385,376.771981 472.55745,379.490238 L469.599625,387.704882 L467.994975,391.967876 C467.4082,393.38089 466.701675,394.769956 466.04305,396.194945 C464.70185,399.044924 463.2888,401.930827 461.82785,404.840679 C455.185242,416.7449 446.990511,427.713887 437.458725,437.459764 C427.712605,446.991311 416.743343,455.185837 404.838825,461.828279 C401.9289,463.301167 399.03095,464.702207 396.192875,466.055349 C394.76785,466.713957 393.37875,467.40849 391.953725,467.99525 L387.690625,469.59986 L379.48775,472.557611 C376.769425,473.335967 374.134925,474.00655 371.596225,474.653184 C369.04555,475.263893 366.638575,475.99435 364.291475,476.353591 C361.9324,476.724807 359.717025,477.072073 357.6214,477.41934 C355.5138,477.706732 353.5499,477.994125 351.7297,478.257569 L346.72415,478.568911 L337.19205,479 L337.1202,479 L327.600075,478.568911 L322.570575,478.245594 L316.702825,477.407365 L310.020775,476.353591 C307.673675,475.99435 305.254725,475.251919 302.716025,474.653184 C300.1893,474.00655 297.542825,473.323992 294.836475,472.557611 L286.621625,469.59986 L282.358525,467.99525 C280.9335,467.40849 279.556375,466.713957 278.119375,466.055349 C275.2813,464.702207 272.395325,463.301167 269.473425,461.828279 C257.570217,455.183817 246.601211,446.989482 236.853525,437.459764 C227.105875,427.544711 218.8551,416.252569 212.4844,404.840679 C211.02345,401.930827 209.622375,399.044924 208.2692,396.194945 C207.610575,394.769956 206.916025,393.38089 206.317275,391.967876 L204.712625,387.704882 L201.7548,379.490238 C200.9884,376.771981 200.305825,374.137547 199.659175,371.59891 C199.060425,369.060273 198.317975,366.653359 197.958725,364.294343 L196.904925,357.61246 L196.066675,351.744856 L195.74335,346.727457 L195.31225,337.20757 L195.31225,283.668683 L141.795975,283.668683 L132.27585,283.237594 L127.258325,282.926252 L121.3786,282.088023 C119.282975,281.740756 117.055625,281.39349 114.708525,281.022274 C112.34945,280.675008 109.942475,279.932577 107.403775,279.333842 C104.865075,278.675233 102.230575,278.00465 99.51225,277.238269 L91.2974,274.280518 L87.0343,272.675908 C85.62125,272.077173 84.23215,271.38264 82.807125,270.724032 C79.957075,269.370891 77.0711,267.969851 74.1492,266.496963 C62.2494292,259.852798 51.2843454,251.658385 41.541275,242.128447 C32.011099,232.38562 23.8164807,221.42081 17.17215,209.521337 C15.699225,206.59951 14.29815,203.713607 12.944975,200.875603 C12.28635,199.450614 11.5918,198.061548 11.005025,196.636559 L9.400375,192.373566 L6.44255,184.158921 C5.67615,181.452639 4.993575,178.80623 4.33495,176.279568 C3.7362,173.728957 3.005725,171.322042 2.646475,168.975001 C2.27525,166.627959 1.927975,164.38869 1.5807,162.293118 L0.74245,156.425514 L0.4311,151.39614 L0,141.876253 L0,141.79243 L0.4311,132.272543 L0.754425,127.267118 L1.592675,121.375566 L2.646475,114.705657 C3.005725,112.346641 3.7362,109.939727 4.33495,107.40109 C4.993575,104.862453 5.67615,102.228019 6.44255,99.5097623 L9.400375,91.2951176 L11.005025,87.0321242 C11.5918,85.6191095 12.28635,84.2300442 12.944975,82.8050549 C14.29815,79.9670508 15.699225,77.0691733 17.17215,74.159321 C23.8164224,62.2561795 32.0109961,51.2874027 41.541275,41.5402365 C51.2843454,32.0102987 62.2494292,23.8158853 74.1492,17.1717207 C77.0711,15.7108072 79.957075,14.2977926 82.807125,12.9566261 C84.23215,12.2860428 85.62125,11.5915102 87.0343,11.0047499 L91.2974,9.40014 L99.51225,6.44238894 C102.230575,5.6640334 104.865075,4.99345016 107.403775,4.34681633 C109.942475,3.7361066 112.34945,3.00564986 114.708525,2.64640884 L121.390575,1.58066048 L127.258325,0.742431439 L132.27585,0.431089223 L141.795975,0 L141.867825,0 Z M337.132175,283.680658 L337.132175,283.668683 L283.675775,283.668683 L283.675775,337.171646 C283.675775,337.171646 283.819475,338.488863 283.915275,340.79998 C283.932767,341.438592 283.948734,342.077244 283.963175,342.715932 C284.093362,343.453945 284.221096,344.192389 284.346375,344.931252 L284.705625,347.445939 C284.78945,348.344041 285.17265,349.20622 285.3882,350.164196 L286.1067,353.133922 C286.520316,354.13749 286.90764,355.151694 287.268275,356.175496 L287.80715,357.804055 C288.034675,358.330942 288.346025,358.821904 288.585525,359.360766 C289.124159,360.43726 289.635258,361.527312 290.118325,362.629859 C292.714111,367.080698 295.811938,371.219066 299.35105,374.963801 C303.09665,378.498474 307.235077,381.592171 311.6853,384.18432 C312.787898,384.667323 313.877979,385.17841 314.954475,385.717082 C315.481375,385.968551 315.984325,386.279893 316.511225,386.495438 L318.12785,387.046274 C319.155416,387.407484 320.173621,387.794792 321.181475,388.20782 L324.151275,388.926302 C325.0973,389.117897 325.971475,389.525037 326.8696,389.596885 L329.38435,389.956126 L331.58775,390.339317 C332.226384,390.356565 332.865052,390.372531 333.50375,390.387215 C335.8269,390.483013 337.14415,390.626709 337.14415,390.626709 L337.1681,390.626709 C337.1681,390.626709 338.497325,390.483013 340.8085,390.387215 L342.7245,390.339317 L344.939875,389.956126 L347.454625,389.596885 C348.35275,389.525037 349.21495,389.129872 350.17295,388.926302 L353.130775,388.20782 C354.138816,387.795264 355.157009,387.407961 356.1844,387.046274 L357.801025,386.495438 C358.327925,386.279893 358.830875,385.956576 359.357775,385.717082 C360.438004,385.177774 361.532092,384.66668 362.638925,384.18432 C366.878075,381.705557 371.141175,378.60411 374.973175,374.963801 C378.613575,371.131897 381.703125,366.868903 384.193925,362.629859 C384.677991,361.523819 385.189077,360.429801 385.726725,359.348791 C385.9782,358.821904 386.277575,358.318967 386.5051,357.79208 L387.043975,356.175496 C387.405859,355.152153 387.79317,354.137981 388.20555,353.133922 C388.469,352.104097 388.696525,351.122172 388.92405,350.164196 C389.127625,349.20622 389.534775,348.344041 389.606625,347.433964 L389.9539,344.919277 C390.109575,344.140921 390.229325,343.39849 390.349075,342.715932 C390.367702,342.077351 390.383669,341.438694 390.396975,340.79998 C390.492775,338.488863 390.636475,337.171646 390.636475,337.171646 L390.636475,337.135722 C390.636475,337.135722 390.492775,335.818505 390.396975,333.495413 L390.349075,331.579461 L389.965875,329.376116 L389.606625,326.861428 C389.534775,325.963326 389.1396,325.101147 388.936025,324.143171 L388.217525,321.173446 C387.810375,320.19152 387.4152,319.185645 387.043975,318.131872 L386.5051,316.503312 C386.277575,315.976426 385.966225,315.473488 385.726725,314.946601 C385.199825,313.892828 384.6849,312.80313 384.193925,311.665533 C381.703125,307.438464 378.613575,303.163496 374.973175,299.331592 C371.141175,295.691283 366.878075,292.60181 362.638925,290.111072 C361.513275,289.620109 360.42355,289.117172 359.357775,288.590285 C358.830875,288.338817 358.327925,288.027474 357.801025,287.81193 L356.1844,287.261093 C355.1306,286.889878 354.112725,286.494713 353.130775,286.099548 L350.17295,285.381065 C349.21495,285.177496 348.35275,284.770356 347.44265,284.710482 L344.9279,284.351241 L342.7245,283.968051 L340.8085,283.908177 C338.48535,283.824354 337.1681,283.680658 337.1681,283.680658 L337.132175,283.680658 Z" id="path-1"></path>
        <filter x="-30.7%" y="-26.1%" width="168.1%" height="168.1%" filterUnits="objectBoundingBox" id="filter-3">
            <feOffset dx="16" dy="38" in="SourceAlpha" result="shadowOffsetOuter1"></feOffset>
            <feGaussianBlur stdDeviation="48" in="shadowOffsetOuter1" result="shadowBlurOuter1"></feGaussianBlur>
            <feColorMatrix values="0 0 0 0 0   0 0 0 0 0   0 0 0 0 0  0 0 0 0.04 0" type="matrix" in="shadowBlurOuter1"></feColorMatrix>
        </filter>
    </defs>
    <g id="Page-1" stroke="none" stroke-width="1" fill="none" fill-rule="evenodd">
        <g id="Group-35" transform="translate(0.000000, 56.000000)">
            <g id="Combined-Shape-2" transform="translate(215.000000, 0.000000)">
                <mask id="mask-2" fill="white">
                    <use xlink:href="#path-1"></use>
                </mask>
                <g id="Combined-Shape">
                    <use fill="black" fill-opacity="1" filter="url(#filter-3)" xlink:href="#path-1"></use>
                    <use fill="#FFFFFF" fill-rule="evenodd" xlink:href="#path-1"></use>
                </g>
            </g>
            <path d="M0.968,289.864 L35.784,289.864 C64.584,289.864 81.48,306.632 81.48,335.432 C81.48,364.104 64.456,381 35.784,381 L0.968,381 L0.968,289.864 Z M18.248,366.152 L35.528,366.152 C53.448,366.152 63.56,355.4 63.56,335.432 C63.56,315.464 53.448,304.712 35.528,304.712 L18.248,304.712 L18.248,366.152 Z M152.996,349.128 L152.996,352.968 L103.588,352.968 C104.74,364.36 111.012,369.992 120.74,369.992 C128.164,369.992 133.156,366.792 135.844,360.52 L151.332,360.52 C147.876,373.96 136.356,382.536 120.612,382.536 C100.004,382.536 87.716,367.944 87.716,347.976 C87.716,328.008 99.748,313.416 120.356,313.416 C141.476,313.416 152.996,329.032 152.996,349.128 Z M120.228,325.96 C111.396,325.96 105.252,331.08 103.716,341.704 L136.868,341.704 C135.46,332.104 129.572,325.96 120.228,325.96 Z M187.52,382.792 C168.32,382.792 158.208,375.24 157.312,360.008 L173.056,360.008 C173.952,368.2 178.048,371.272 187.776,371.272 C196.48,371.272 200.832,368.584 200.832,363.336 C200.832,358.6 197.76,356.296 187.904,354.632 L180.352,353.352 C165.888,350.92 158.72,344.264 158.72,333.384 C158.72,320.968 168.576,313.416 186.112,313.416 C204.928,313.416 214.656,320.84 215.296,335.816 L200.064,335.816 C199.68,327.752 194.944,324.936 186.112,324.936 C178.432,324.936 174.592,327.496 174.592,332.616 C174.592,337.224 177.92,339.272 185.6,340.68 L193.92,341.96 C209.92,344.904 216.832,350.792 216.832,362.056 C216.832,375.368 206.08,382.792 187.52,382.792 Z M239.708,306.376 L223.836,306.376 L223.836,291.272 L239.708,291.272 L239.708,306.376 Z M239.836,381 L223.708,381 L223.708,314.952 L239.836,314.952 L239.836,381 Z M298.808,324.04 L298.808,314.952 L314.424,314.952 L314.424,378.824 C314.424,396.616 302.904,407.624 281.784,407.624 C263.224,407.624 252.472,398.792 251.448,384.584 L267.32,384.584 C268.088,391.624 272.952,395.208 282.04,395.208 C292.664,395.208 298.296,389.576 298.296,379.208 L298.296,370.888 C293.56,377.416 286.904,380.744 278.072,380.744 C258.488,380.744 248.248,365.384 248.248,347.08 C248.248,328.776 258.36,313.416 277.944,313.416 C287.288,313.416 294.2,317 298.808,324.04 Z M281.656,367.432 C292.28,367.432 298.68,360.008 298.68,347.08 C298.68,334.152 292.28,326.728 281.656,326.728 C271.288,326.728 264.76,334.408 264.76,347.208 C264.76,359.88 271.288,367.432 281.656,367.432 Z M362.004,313.416 C376.212,313.416 385.172,321.864 385.172,337.224 L385.172,381 L369.044,381 L369.044,339.912 C369.044,331.592 364.948,327.368 356.628,327.368 C348.82,327.368 341.908,333.128 341.908,344.008 L341.908,381 L325.78,381 L325.78,314.952 L341.396,314.952 L341.396,324.424 C346.388,317.128 353.172,313.416 362.004,313.416 Z" id="Design" fill="#000000" fill-rule="nonzero"></path>
            <path d="M589.92,121 C600.288,124.712 605.792,133.288 605.792,142.888 C605.792,159.144 594.912,169 574.048,169 L531.424,169 L531.424,77.864 L572.64,77.864 C592.48,77.864 602.08,87.976 602.08,101.416 C602.08,110.376 597.984,116.904 589.92,121 Z M571.36,92.072 L548.704,92.072 L548.704,115.88 L571.36,115.88 C580.192,115.88 584.928,111.272 584.928,103.592 C584.928,96.552 580.064,92.072 571.36,92.072 Z M548.704,154.664 L573.152,154.664 C582.88,154.664 588.128,150.184 588.128,142.12 C588.128,133.672 583.136,129.448 573.152,129.448 L548.704,129.448 L548.704,154.664 Z M656.06,139.944 L656.06,102.952 L672.188,102.952 L672.188,169 L656.572,169 L656.572,159.4 C651.58,166.824 644.668,170.536 635.836,170.536 C621.884,170.536 612.796,162.088 612.796,146.728 L612.796,102.952 L628.924,102.952 L628.924,144.04 C628.924,152.36 633.02,156.584 641.34,156.584 C649.148,156.584 656.06,150.824 656.06,139.944 Z M699.544,94.376 L683.672,94.376 L683.672,79.272 L699.544,79.272 L699.544,94.376 Z M699.672,169 L683.544,169 L683.544,102.952 L699.672,102.952 L699.672,169 Z M727.156,169 L711.028,169 L711.028,77.864 L727.156,77.864 L727.156,169 Z M785.616,111.528 L785.616,77.864 L801.744,77.864 L801.744,169 L786.128,169 L786.128,159.784 C781.264,166.952 774.352,170.536 765.264,170.536 C745.168,170.536 735.568,154.536 735.568,135.976 C735.568,117.288 745.04,101.416 765.264,101.416 C774.096,101.416 780.88,104.744 785.616,111.528 Z M752.08,136.488 C752.08,147.624 756.56,157.224 768.976,157.224 C781.648,157.224 786,147.112 786,135.976 C786,122.152 779.6,114.728 768.976,114.728 C758.608,114.728 752.08,122.664 752.08,136.488 Z" id="Build" fill="#000000" fill-rule="nonzero"></path>
        </g>
    </g>
</svg>