<svg xmlns="http://www.w3.org/2000/svg" xmlns:xlink="http://www.w3.org/1999/xlink" width="663" height="665">
  <defs>
    <path id="a" d="M141.868 0h-.012 52.57v88.373H141.82s-1.317.144-3.64.228l-1.916.06-2.204.383-2.515.36c-.898.071-1.76.466-2.718.67l-2.97.718a47.34 47.34 0 0 1-3.041 1.162l-1.629.55c-.527.216-1.03.527-1.557.779a83.272 83.272 0 0 1-3.269 1.533c-4.24 2.478-8.514 5.58-12.346 9.22-3.64 3.832-6.73 8.095-9.22 12.334a75.464 75.464 0 0 1-1.522 3.281c-.251.527-.563 1.03-.778 1.557l-.551 1.617a55.674 55.674 0 0 1-1.162 3.041l-.718 2.97c-.204.958-.599 1.82-.67 2.73l-.36 2.515-.383 2.203c-.024.695-.048 1.33-.048 1.916-.096 2.311-.24 3.628-.24 3.628v.036s.144 1.317.228 3.64l.06 1.917.383 2.203.36 2.515c.071.898.466 1.76.67 2.718.237.99.477 1.98.718 2.97a65.38 65.38 0 0 1 1.162 3.053l.55 1.617c.216.527.528 1.03.78 1.556a66.674 66.674 0 0 1 1.532 3.281 67.382 67.382 0 0 0 9.22 12.334 67.3 67.3 0 0 0 12.335 9.22c1.103.479 2.193.986 3.27 1.522.526.251 1.03.563 1.568.79l1.617.539c1.024.36 2.038.747 3.041 1.161l2.97.719c.958.204 1.82.61 2.73.67l2.515.36 2.203.395 1.916.036c2.312.108 3.629.24 3.629.24h53.492V89.26h88.376v106.06h53.504l9.532.442 5.006.312 5.891.838 6.67 1.054c2.348.359 4.755 1.101 7.293 1.7 2.55.659 5.185 1.33 7.904 2.096l8.203 2.957 4.263 1.605c1.425.587 2.814 1.293 4.239 1.952a404.964 404.964 0 0 1 8.646 4.215 153.998 153.998 0 0 1 32.62 24.38 153.923 153.923 0 0 1 24.369 32.608 424.5 424.5 0 0 1 4.215 8.645c.659 1.425 1.353 2.826 1.952 4.24l1.605 4.262 2.957 8.215c.779 2.706 1.45 5.353 2.096 7.88.61 2.55 1.341 4.957 1.7 7.304l1.054 6.682.839 5.88.31 5.005.444 9.532v.084l-.443 9.507-.311 5.03-.839 5.88-1.053 6.67c-.36 2.358-1.102 4.765-1.7 7.304-.66 2.539-1.33 5.173-2.097 7.891l-2.957 8.215-1.605 4.263c-.587 1.413-1.293 2.802-1.952 4.227a378.845 378.845 0 0 1-4.215 8.646 153.911 153.911 0 0 1-24.37 32.619 153.914 153.914 0 0 1-32.62 24.368 406.11 406.11 0 0 1-8.645 4.227c-1.425.659-2.814 1.353-4.24 1.94l-4.262 1.605-8.203 2.958c-2.719.778-5.353 1.449-7.892 2.095-2.55.61-4.957 1.341-7.305 1.7-2.359.372-4.574.72-6.67 1.066-2.107.288-4.071.575-5.891.839l-5.006.31-9.532.432h-.072l-9.52-.431-5.03-.323-5.867-.839-6.682-1.053c-2.347-.36-4.766-1.102-7.305-1.7-2.527-.647-5.173-1.33-7.88-2.096l-8.214-2.958-4.263-1.605c-1.425-.587-2.803-1.281-4.24-1.94a436.288 436.288 0 0 1-8.646-4.227 154.118 154.118 0 0 1-32.62-24.368c-9.747-9.915-17.998-21.207-24.369-32.62a436.574 436.574 0 0 1-4.215-8.645c-.658-1.425-1.353-2.814-1.952-4.227l-1.604-4.263-2.958-8.215a319.01 319.01 0 0 1-2.096-7.891c-.599-2.539-1.341-4.946-1.7-7.305l-1.054-6.682-.838-5.867-.324-5.018-.43-9.52V283.67h-53.517l-9.52-.431-5.018-.312-5.88-.838c-2.095-.347-4.322-.695-6.67-1.066-2.359-.347-4.766-1.09-7.304-1.688-2.539-.659-5.173-1.33-7.892-2.096l-8.215-2.957-4.263-1.605c-1.413-.599-2.802-1.293-4.227-1.952a406.672 406.672 0 0 1-8.658-4.227 153.998 153.998 0 0 1-32.608-24.369 153.995 153.995 0 0 1-24.369-32.607 436.262 436.262 0 0 1-4.227-8.645c-.659-1.425-1.353-2.814-1.94-4.24L9.4 192.375l-2.957-8.215c-.767-2.706-1.45-5.353-2.108-7.88-.599-2.55-1.33-4.957-1.689-7.304-.37-2.347-.718-4.586-1.065-6.682l-.839-5.867-.31-5.03-.432-9.52v-.084l.431-9.52.323-5.005.839-5.891 1.053-6.67c.36-2.36 1.09-4.766 1.689-7.305.659-2.539 1.341-5.173 2.108-7.891L9.4 91.295l1.605-4.263c.587-1.413 1.281-2.802 1.94-4.227a406.086 406.086 0 0 1 4.227-8.646 154.079 154.079 0 0 1 24.37-32.619 153.998 153.998 0 0 1 32.607-24.368 405.532 405.532 0 0 1 8.658-4.215c1.425-.671 2.814-1.365 4.227-1.952L91.297 9.4l8.215-2.958c2.719-.778 5.353-1.449 7.892-2.095 2.538-.61 4.945-1.341 7.305-1.7l6.682-1.066 5.867-.839 5.018-.31 9.52-.432h.072zm195.264 283.68v-.011h-53.456v53.503s.143 1.317.24 3.628c.017.639.033 1.277.047 1.916.13.738.258 1.476.383 2.215l.36 2.515c.083.898.467 1.76.682 2.718l.719 2.97c.413 1.003.8 2.018 1.161 3.041l.54 1.63c.227.526.538 1.017.778 1.556a70.818 70.818 0 0 1 1.532 3.269 67.37 67.37 0 0 0 9.233 12.334 67.395 67.395 0 0 0 12.334 9.22 70.69 70.69 0 0 1 3.27 1.533c.526.252 1.03.563 1.556.778l1.617.551c1.027.361 2.046.749 3.053 1.162l2.97.718c.946.192 1.82.599 2.719.67l2.514.36 2.204.383c.638.018 1.277.034 1.916.048 2.323.096 3.64.24 3.64.24h.024s1.33-.144 3.64-.24l1.916-.048 2.216-.383 2.515-.36c.898-.071 1.76-.466 2.718-.67l2.958-.718c1.008-.413 2.026-.8 3.053-1.162l1.617-.55c.527-.216 1.03-.54 1.557-.779 1.08-.54 2.174-1.05 3.28-1.533 4.24-2.478 8.503-5.58 12.335-9.22 3.64-3.832 6.73-8.095 9.22-12.334.485-1.106.996-2.2 1.534-3.281.251-.527.55-1.03.778-1.557l.539-1.617a65.38 65.38 0 0 1 1.162-3.041c.263-1.03.49-2.012.718-2.97.204-.958.61-1.82.683-2.73l.347-2.515c.156-.778.275-1.52.395-2.203.019-.639.035-1.277.048-1.916.096-2.311.24-3.628.24-3.628v-.036s-.144-1.317-.24-3.64l-.048-1.917-.383-2.203-.36-2.515c-.071-.898-.466-1.76-.67-2.718l-.718-2.97a59.665 59.665 0 0 1-1.174-3.041l-.539-1.629c-.227-.527-.539-1.03-.778-1.556a64.265 64.265 0 0 1-1.533-3.281c-2.49-4.228-5.58-8.503-9.22-12.334-3.833-3.64-8.096-6.73-12.335-9.22a75.468 75.468 0 0 1-3.281-1.522c-.527-.251-1.03-.563-1.557-.778l-1.617-.55a74.227 74.227 0 0 1-3.053-1.162l-2.958-.719c-.958-.204-1.82-.61-2.73-.67l-2.515-.36-2.204-.383-1.916-.06c-2.323-.084-3.64-.227-3.64-.227h-.036z"/>
    <filter id="b" width="168.1%" height="168.1%" x="-30.7%" y="-26.1%" filterUnits="objectBoundingBox">
      <feOffset dx="16" dy="38" in="SourceAlpha" result="shadowOffsetOuter1"/>
      <feGaussianBlur in="shadowOffsetOuter1" result="shadowBlurOuter1" stdDeviation="48"/>
      <feColorMatrix in="shadowBlurOuter1" values="0 0 0 0 0 0 0 0 0 0 0 0 0 0 0 0 0 0 0.04 0"/>
    </filter>
  </defs>
  <g fill="none" fill-rule="evenodd" transform="translate(76 56)">
    <use fill="#000" filter="url(#b)" xlink:href="#a"/>
    <use fill="#FFF" xlink:href="#a"/>
  </g>
</svg>
