<?xml version="1.0" encoding="UTF-8"?>
<svg width="72px" height="20px" viewBox="0 0 72 20" version="1.1" xmlns="http://www.w3.org/2000/svg" xmlns:xlink="http://www.w3.org/1999/xlink">
    <!-- Generator: Sketch 56.3 (81716) - https://sketch.com -->
    <title>logo</title>
    <desc>Created with Sketch.</desc>
    <g id="Page-1" stroke="none" stroke-width="1" fill="none" fill-rule="evenodd">
        <g id="Home" transform="translate(-70.000000, -5563.000000)" fill="#FFFFFF">
            <g id="Group-18" transform="translate(0.000000, 5162.000000)">
                <g id="logo" transform="translate(70.000000, 401.000000)">
                    <path d="M6.53775824,19.9743113 C3.59446154,19.9743113 1.36641758,18.7701514 0.0949450549,16.4999088 L0.0158241758,16.3554096 C0.00524872734,16.3364381 0.00273073132,16.3139192 0.00884865968,16.2930262 C0.014966588,16.2721331 0.0291944966,16.2546621 0.0482637363,16.2446269 L3.05643956,14.6519248 C3.09371782,14.6323881 3.13954473,14.6457735 3.16087912,14.6824302 L3.24,14.814085 C3.99323077,16.1161832 5.18320879,16.8049626 6.68096703,16.8049626 C8.30769231,16.8049626 9.0356044,15.9676701 9.0356044,15.1384054 C9.0356044,14.2553549 7.69054945,13.9767926 6.12791209,13.6548805 L5.77898901,13.5826309 C3.3032967,13.0503923 0.662241758,12.2179164 0.662241758,9.04054005 C0.662241758,7.8251414 1.21608791,6.68279511 2.21538462,5.82382777 C3.25978022,4.92793286 4.72114286,4.4350301 6.32967033,4.4350301 L6.39534066,4.4350301 C9.01107692,4.4350301 11.1141099,5.46980478 12.3175385,7.34829411 L12.4101099,7.49279329 C12.4220424,7.5115313 12.4257518,7.53446228 12.4203484,7.55608716 C12.414945,7.57771204 12.4009163,7.59608031 12.3816264,7.60678708 L9.56967033,9.17781427 C9.53338905,9.19807823 9.48784505,9.18652581 9.46523077,9.15132275 L9.38610989,9.0268929 C8.74364835,8.03466521 7.68105495,7.48797665 6.39454945,7.48797665 C5.29318681,7.48797665 4.17916484,7.94957125 4.17916484,8.98113483 C4.17916484,9.82244116 5.42769231,10.1050173 7.3170989,10.5296844 L7.35428571,10.5385149 C9.85608791,11.0956395 12.5248352,11.9521985 12.5248352,15.079803 C12.5248352,16.230177 11.9955165,17.4423645 11.1077802,18.322204 C10.3482198,19.0752053 8.95015385,19.9735085 6.59789011,19.9735085 L6.53775824,19.9735085 L6.53775824,19.9743113 Z" id="Shape"></path>
                    <path d="M20.1251868,19.9590586 C17.7966593,19.9590586 16.4183736,19.557672 15.517978,18.6120051 C14.6373626,17.6888159 14.2615385,16.2470352 14.2615385,13.7897464 L14.2615385,2.45218026 C14.2614593,2.42276232 14.2772455,2.39565677 14.3026813,2.38153622 L17.7048791,0.501441343 C17.7294266,0.487813672 17.7592428,0.488354886 17.7832942,0.502864704 C17.8073455,0.517374523 17.8220545,0.543694733 17.821978,0.572085386 L17.821978,4.70636745 C17.821978,4.75070339 17.8574016,4.78664477 17.9010989,4.78664477 L20.7494505,4.78664477 C20.7931478,4.78664477 20.8285714,4.82258615 20.8285714,4.86692209 L20.8285714,7.91746032 C20.8285714,7.96179626 20.7931478,7.99773764 20.7494505,7.99773764 L17.9010989,7.99773764 C17.8574016,7.99773764 17.821978,8.03367902 17.821978,8.07801496 L17.821978,13.7608466 C17.821978,16.2494435 18.0799121,16.5071337 20.5817143,16.5071337 L20.7502418,16.5071337 C20.793939,16.5071337 20.8293626,16.5430751 20.8293626,16.5874111 L20.8293626,19.8787812 C20.8293626,19.9231172 20.793939,19.9590586 20.7502418,19.9590586 L20.125978,19.9590586 L20.1251868,19.9590586 Z" id="Shape"></path>
                    <path d="M46.8625055,19.9743113 C43.2625055,19.9743113 39.5390769,17.0738916 39.5390769,12.219522 C39.5390769,9.9950374 40.3302857,7.98328772 41.775033,6.55595694 C43.1435703,5.20536161 44.9802913,4.45434191 46.8894066,4.46473271 C48.5153407,4.46473271 50.112,5.079657 51.2410549,6.12486772 C51.2643859,6.14566402 51.2975504,6.15068878 51.3258515,6.13771525 C51.3541526,6.12474172 51.3723563,6.09616921 51.3723956,6.06465973 L51.3723956,4.86692209 C51.3723956,4.82258615 51.4078192,4.78664477 51.4515165,4.78664477 L54.8537143,4.78664477 C54.8974115,4.78664477 54.9328352,4.82258615 54.9328352,4.86692209 L54.9328352,19.6379493 C54.9328352,19.6822852 54.8974115,19.7182266 54.8537143,19.7182266 L51.4515165,19.7182266 C51.4078192,19.7182266 51.3723956,19.6822852 51.3723956,19.6379493 L51.3723956,18.2892903 C51.3719849,18.2575625 51.3531936,18.2290572 51.3244488,18.216558 C51.295704,18.2040587 51.2624001,18.2099111 51.2394725,18.2314906 C50.1207033,19.3248677 48.5153407,19.9743113 46.8625055,19.9743113 Z M47.3024176,7.74968072 C44.9121758,7.74968072 43.0393846,9.70041963 43.0393846,12.1906221 C43.0393846,14.6968801 44.9121758,16.6604634 47.3024176,16.6604634 C48.4531223,16.6712172 49.5570098,16.1988032 50.3525275,15.3551542 C51.1440548,14.4985688 51.5786411,13.3647274 51.5654505,12.1906221 C51.5646593,9.70041963 49.6926593,7.74968072 47.3016264,7.74968072 L47.3024176,7.74968072 Z" id="Shape"></path>
                    <path d="M63.9961319,19.9743113 C60.3953407,19.9743113 56.6703297,17.0738916 56.6703297,12.219522 C56.6703297,9.99423463 57.4615385,7.98248495 58.9047033,6.55595694 C60.2744146,5.20418876 62.1130684,4.45307592 64.0238242,4.46473271 C65.6521319,4.46473271 67.2511648,5.079657 68.3754725,6.12486772 C68.3988035,6.14566402 68.431968,6.15068878 68.4602691,6.13771525 C68.4885702,6.12474172 68.5067739,6.09616921 68.5068132,6.06465973 C68.5068132,6.06465973 68.5222824,1.90391911 68.5471648,1.88972815 L71.8702418,0.011238825 C71.8947199,-0.00272166196 71.9246571,-0.00247258098 71.9489063,0.0118933247 C71.9731556,0.0262592303 71.9880835,0.0525894335 71.9881319,0.0810800949 L71.9881319,19.6379493 C71.9881319,19.6822852 71.9527082,19.7182266 71.909011,19.7182266 L68.5859341,19.7182266 C68.5422368,19.7182266 68.5068132,19.6822852 68.5068132,19.6379493 L68.5068132,18.2892903 C68.5064025,18.2575625 68.4876112,18.2290572 68.4588664,18.216558 C68.4301216,18.2040587 68.3968177,18.2099111 68.3738901,18.2314906 C67.2590769,19.3248677 65.6521319,19.9743113 63.9961319,19.9743113 Z M64.4312967,7.74968072 C62.0410549,7.74968072 60.1682637,9.70041963 60.1682637,12.1906221 C60.1682637,14.6968801 62.0410549,16.6604634 64.4312967,16.6604634 C65.5820201,16.6713133 66.6859437,16.1988839 67.4814066,15.3551542 C68.2729339,14.4985688 68.7075202,13.3647274 68.6943297,12.1906221 C68.6943297,9.70041963 66.8215385,7.74968072 64.4312967,7.74968072 L64.4312967,7.74968072 Z" id="Shape"></path>
                    <path d="M33.9855824,14.9377121 C33.9502579,14.9179696 33.905951,14.9283437 33.8827253,14.9617953 C33.0796484,16.1073527 31.8255824,16.750374 30.3317802,16.750374 C28.1883956,16.750374 26.5711648,15.5630724 26.064,13.6372195 C26.0574578,13.6126281 26.0628061,13.5863459 26.0784126,13.5663944 C26.094019,13.5464429 26.1180314,13.53519 26.1431209,13.5360701 L37.7192967,13.5360701 C37.762994,13.5360701 37.7984176,13.5001287 37.7984176,13.4557927 L37.7984176,12.0750228 C37.7984176,7.66538953 34.6153846,4.46473271 30.2297143,4.46473271 C28.136967,4.46473271 26.2008791,5.26750593 24.7767033,6.72935596 C23.3525275,8.19120598 22.5755604,10.155592 22.5755604,12.2773217 C22.5755604,16.7375296 25.8377143,19.9743113 30.3294066,19.9743113 C33.0930989,19.9743113 35.3567473,18.7902208 36.7864615,16.6211275 C36.7989996,16.6023751 36.8031425,16.5791196 36.7978677,16.5571004 C36.7925929,16.5350813 36.7783918,16.5163496 36.7587692,16.5055282 L33.9855824,14.9377121 Z M30.2178462,7.65093961 C32.165011,7.65093961 33.567033,8.61426747 34.0947692,10.3000912 C34.1025547,10.3251105 34.097799,10.352411 34.0820327,10.3732068 C34.0662664,10.3940026 34.0414792,10.4056691 34.0156484,10.4044517 L26.333011,10.4044517 C26.3065565,10.4045865 26.281786,10.3912975 26.2670016,10.3690387 C26.2522172,10.3467799 26.2493754,10.3184969 26.2594286,10.293669 C26.9272088,8.68089765 28.4542418,7.65093961 30.2178462,7.65093961 L30.2178462,7.65093961 Z" id="Shape"></path>
                </g>
            </g>
        </g>
    </g>
</svg>