<?xml version="1.0" encoding="UTF-8"?>
<svg width="73px" height="20px" viewBox="0 0 73 20" version="1.1" xmlns="http://www.w3.org/2000/svg" xmlns:xlink="http://www.w3.org/1999/xlink">
    <!-- Generator: Sketch 56.3 (81716) - https://sketch.com -->
    <title>stead-logo-dark</title>
    <desc>Created with Sketch.</desc>
    <g id="Page-1" stroke="none" stroke-width="1" fill="none" fill-rule="evenodd">
        <g id="Home" transform="translate(-70.000000, -40.000000)" fill="#000000" fill-rule="nonzero">
            <g id="stead-logo-dark" transform="translate(70.000000, 40.000000)">
                <path d="M6.62856044,19.9743113 C3.64438462,19.9743113 1.3853956,18.7701514 0.0962637366,16.4999088 L0.016043956,16.3554096 C0.00532162633,16.3364381 0.00276865815,16.3139192 0.00897155772,16.2930261 C0.0151744573,16.2721331 0.0295999757,16.2546621 0.048934066,16.2446269 L3.09889011,14.6519249 C3.13668612,14.6323881 3.18314952,14.6457735 3.20478022,14.6824302 L3.285,14.814085 C4.04869231,16.1161831 5.2551978,16.8049626 6.77375824,16.8049626 C8.42307695,16.8049626 9.16109893,15.9676701 9.16109893,15.1384054 C9.16109893,14.2553549 7.79736267,13.9767926 6.21302198,13.6548805 L5.85925275,13.5826309 C3.34917582,13.0503923 0.67143956,12.2179164 0.67143956,9.04054007 C0.67143956,7.82514143 1.23297802,6.68279511 2.24615385,5.82382777 C3.30505495,4.92793286 4.78671428,4.43503011 6.41758242,4.43503011 L6.48416483,4.43503011 C9.13623076,4.43503011 11.2684725,5.46980478 12.4886154,7.34829407 L12.5824725,7.49279329 C12.5945708,7.51153129 12.5983317,7.53446229 12.5928533,7.55608714 C12.5873748,7.57771207 12.5731512,7.59608029 12.5535934,7.60678707 L9.70258244,9.17781429 C9.66579724,9.19807821 9.61962066,9.18652579 9.59669229,9.15132279 L9.51647252,9.02689293 C8.86508794,8.03466521 7.78773626,7.48797664 6.48336263,7.48797664 C5.3667033,7.48797664 4.23720879,7.94957121 4.23720879,8.98113486 C4.23720879,9.82244114 5.50307692,10.1050174 7.41872527,10.5296844 L7.45642855,10.5385149 C9.99297802,11.0956395 12.6987912,11.9521985 12.6987912,15.0798029 C12.6987912,16.230177 12.1621209,17.4423645 11.262055,18.322204 C10.491945,19.0752053 9.07446153,19.9735085 6.68952747,19.9735085 L6.62856044,19.9735085 L6.62856044,19.9743113 Z M20.4047033,19.9590586 C18.0438352,19.9590586 16.6464066,19.5576719 15.7335055,18.6120051 C14.8406593,17.6888159 14.4596151,16.2470352 14.4596151,13.7897464 L14.4596151,2.45218026 C14.4595351,2.42276231 14.4755406,2.39565677 14.5013297,2.38153621 L17.9507802,0.501441343 C17.9756686,0.487813672 18.005899,0.488354886 18.0302844,0.502864704 C18.0546697,0.517374523 18.0695831,0.543694733 18.0695055,0.572085386 L18.0695055,4.70636745 C18.0695055,4.75070339 18.1054211,4.78664477 18.1497253,4.78664477 L21.0376373,4.78664477 C21.0819415,4.78664477 21.1178572,4.82258616 21.1178572,4.86692209 L21.1178572,7.91746029 C21.1178572,7.96179629 21.0819415,7.99773764 21.0376373,7.99773764 L18.1497253,7.99773764 C18.1054211,7.99773764 18.0695055,8.033679 18.0695055,8.07801493 L18.0695055,13.7608466 C18.0695055,16.2494435 18.331022,16.5071337 20.8675714,16.5071337 L21.0384395,16.5071337 C21.0827437,16.5071337 21.1186593,16.5430751 21.1186593,16.5874111 L21.1186593,19.8787812 C21.1186593,19.9231172 21.0827437,19.9590586 21.0384395,19.9590586 L20.4055055,19.9590586 L20.4047033,19.9590586 Z M47.5133737,19.9743113 C43.8633737,19.9743113 40.0882308,17.0738916 40.0882308,12.219522 C40.0882308,9.99503743 40.8904286,7.98328771 42.3552418,6.55595694 C43.7427866,5.20536161 45.6050175,4.45434191 47.5406483,4.46462631 C49.1891648,4.46462631 50.808,5.079657 51.9527363,6.12486772 C51.9763913,6.14566402 52.0100164,6.15068878 52.0387106,6.13771525 C52.0674047,6.12474172 52.0858613,6.09616921 52.0859011,6.06465974 L52.0859011,4.86692209 C52.0859011,4.82258616 52.1218167,4.78664477 52.1661209,4.78664477 L55.6155714,4.78664477 C55.6598756,4.78664477 55.6957912,4.82258616 55.6957912,4.86692209 L55.6957912,19.6379493 C55.6957912,19.6822852 55.6598756,19.7182266 55.6155714,19.7182266 L52.1661209,19.7182266 C52.1218167,19.7182266 52.0859011,19.6822852 52.0859011,19.6379493 L52.0859011,18.2892903 C52.0854847,18.2575625 52.0664324,18.2290572 52.0372884,18.216558 C52.0081443,18.2040587 51.9743778,18.2099111 51.9511318,18.2314906 C50.8168242,19.3248677 49.1891648,19.9743113 47.5133737,19.9743113 Z M47.9593956,7.74968071 C45.535956,7.74968071 43.6371538,9.70041964 43.6371538,12.1906221 C43.6371538,14.6968801 45.535956,16.6604634 47.9593956,16.6604634 C49.1260824,16.6712172 50.2453015,16.1988032 51.0518682,15.3551541 C51.8543889,14.4985688 52.2950111,13.3647274 52.2816373,12.1906221 C52.2808352,9.70041964 50.3828352,7.74968071 47.9585934,7.74968071 L47.9593956,7.74968071 Z M64.884967,19.9743113 C61.2341648,19.9743113 57.4574176,17.0738916 57.4574176,12.219522 C57.4574176,9.99423464 58.2596154,7.98248493 59.7228242,6.55595694 C61.1115592,5.20418876 62.9757499,4.45307591 64.913044,4.46473271 C66.563967,4.46473271 68.1852088,5.079657 69.3251318,6.12486772 C69.3487869,6.14566402 69.382412,6.15068878 69.4111062,6.13771525 C69.4398003,6.12474172 69.4582569,6.09616921 69.4582967,6.06465974 C69.4582967,6.06465974 69.4739807,1.90391911 69.4992088,1.88972815 L72.8684397,0.011238825 C72.8932575,-0.00272166196 72.9236105,-0.00247258098 72.9481965,0.0118933247 C72.9727825,0.0262592304 72.9879672,0.0525894335 72.9879672,0.081080095 L72.9879672,19.6379493 C72.9879672,19.6822852 72.9520512,19.7182266 72.9077473,19.7182266 L69.5385165,19.7182266 C69.4942123,19.7182266 69.4582967,19.6822852 69.4582967,19.6379493 L69.4582967,18.2892903 C69.4578803,18.2575625 69.438828,18.2290572 69.4096839,18.216558 C69.3805399,18.2040587 69.3467735,18.2099111 69.3235275,18.2314906 C68.1932308,19.3248677 66.563967,19.9743113 64.884967,19.9743113 Z M65.3261758,7.74968071 C62.9027363,7.74968071 61.003934,9.70041964 61.003934,12.1906221 C61.003934,14.6968801 62.9027363,16.6604634 65.3261758,16.6604634 C66.4928815,16.6713133 67.6121373,16.1988839 68.4186483,15.3551541 C69.2211691,14.4985688 69.6617914,13.3647274 69.6484176,12.1906221 C69.6484176,9.70041964 67.7496154,7.74968071 65.3261758,7.74968071 L65.3261758,7.74968071 Z M34.4576044,14.9377121 C34.4217893,14.9179696 34.376867,14.9283437 34.3533187,14.9617953 C33.5390879,16.1073526 32.2676044,16.750374 30.753055,16.750374 C28.5799011,16.750374 26.9402088,15.5630724 26.426,13.6372195 C26.4193669,13.6126281 26.4247896,13.5863459 26.4406127,13.5663944 C26.4564359,13.5464429 26.4807818,13.5351899 26.5062198,13.5360701 L38.2431758,13.5360701 C38.28748,13.5360701 38.3233956,13.5001287 38.3233956,13.4557927 L38.3233956,12.0750228 C38.3233956,7.6653895 35.0961538,4.46473271 30.6495714,4.46473271 C28.5277582,4.46473271 26.5647802,5.26750593 25.1208242,6.72935596 C23.6768682,8.191206 22.8891099,10.1555921 22.8891099,12.2773216 C22.8891099,16.7375296 26.1965714,19.9743113 30.7506483,19.9743113 C33.5527253,19.9743113 35.8478132,18.7902208 37.2973846,16.6211275 C37.3100968,16.6023751 37.3142973,16.5791196 37.3089492,16.5571004 C37.3036012,16.5350813 37.2892029,16.5163496 37.2693077,16.5055282 L34.4576044,14.9377121 Z M30.6375385,7.65093964 C32.6117473,7.65093964 34.0332418,8.6142675 34.5683077,10.3000912 C34.5762013,10.3251105 34.5713796,10.3524111 34.5553942,10.3732069 C34.5394089,10.3940026 34.5142775,10.4056691 34.4880879,10.4044517 L26.6987473,10.4044517 C26.6719253,10.4045864 26.6468108,10.3912974 26.6318211,10.3690387 C26.6168314,10.3467799 26.61395,10.3184969 26.6241428,10.2936691 C27.3011978,8.68089764 28.8494395,7.65093964 30.6375385,7.65093964 L30.6375385,7.65093964 Z" id="Shape"></path>
            </g>
        </g>
    </g>
</svg>